<svg xmlns="http://www.w3.org/2000/svg" width="100" height="100" viewBox="0 0 100 100">
  <circle cx="50" cy="50" r="45" fill="#f0f0f0" stroke="#d0d0d0" stroke-width="2" />
  <text x="50" y="55" font-family="Arial, sans-serif" font-size="12" text-anchor="middle" fill="#666">Team Logo</text>
  <path fill="#ccc" d="M35,35 L65,35 C70,35 75,40 75,45 L75,65 C75,70 70,75 65,75 L35,75 C30,75 25,70 25,65 L25,45 C25,40 30,35 35,35 Z" opacity="0.3" />
  <path fill="#999" d="M50,42 C55,42 60,45 60,52 C60,59 55,65 50,65 C45,65 40,59 40,52 C40,45 45,42 50,42 Z" opacity="0.5" />
</svg>